<?xml version="1.0" encoding="utf-8"?>
<!-- Generator: Adobe Illustrator 27.7.0, SVG Export Plug-In . SVG Version: 6.00 Build 0)  -->
<svg version="1.1" id="Layer_1" xmlns="http://www.w3.org/2000/svg" xmlns:xlink="http://www.w3.org/1999/xlink" x="0px" y="0px"
	 viewBox="0 0 35 35" style="enable-background:new 0 0 35 35;" xml:space="preserve">
<style type="text/css">
	.st0{fill:#FFFFFF;}
</style>
<path class="st0" d="M30.64,10.88c-0.07,0.18-0.16,0.35-0.2,0.53c-0.3,1.19-0.58,2.39-0.88,3.59c-0.42,1.69-0.85,3.38-1.28,5.07
	c-0.1,0.42-0.47,0.7-0.93,0.7c-1.19,0-2.38,0-3.57,0c-3.16,0-6.33,0-9.49,0c-0.09,0-0.18,0-0.28,0c0.15,0.65,0.3,1.27,0.45,1.89
	c0.05,0.21,0.25,0.36,0.48,0.36c3.49,0,6.98-0.02,10.47,0.01c1.27,0.01,2.27,0.57,2.81,1.78c0.06,0.12,0.04,0.28,0.06,0.42
	c0.02,0.03,0.03,0.07,0.05,0.1c0.11,0.29,0.15,0.58,0.04,0.88c-0.01,0-0.03,0-0.04,0.01c0.01,0.01,0.02,0.02,0.04,0.04
	c0,0.6-0.28,1.08-0.64,1.52c-0.44,0.53-1.03,0.81-1.69,1c-0.37,0.11-0.71,0-1.06-0.02c-0.03-0.01-0.07-0.02-0.1-0.04
	c-1.05-0.26-1.72-0.94-2.09-1.94c-0.09-0.24-0.11-0.5-0.16-0.74c-0.02-0.1-0.06-0.2-0.09-0.3c0.09-0.01,0.25,0.05,0.15-0.15
	c0.04-0.23,0.09-0.47,0.13-0.71c-1.94,0-3.89,0-5.86,0c0.03,0.1,0.05,0.21,0.08,0.32c0.27,0.85,0.03,1.61-0.42,2.34
	c-0.4,0.64-1,1.01-1.71,1.19c-0.09,0.02-0.18,0-0.28-0.01c-0.03,0.02-0.07,0.03-0.1,0.05c-0.1,0.02-0.2,0.07-0.29,0.05
	c-0.47-0.14-0.97-0.1-1.41-0.37c-0.46-0.28-0.81-0.63-1.07-1.09c-0.05-0.1-0.07-0.21-0.1-0.32c-0.02-0.03-0.03-0.07-0.05-0.1
	c-0.2-0.4-0.35-0.81-0.15-1.27c0.05-0.11-0.02-0.27,0-0.4c0.03-0.18,0.1-0.36,0.15-0.54c0.01-0.02,0.03-0.04,0.04-0.06
	c0.24-0.48,0.58-0.87,1.01-1.18c0.06-0.04,0.11-0.17,0.09-0.23c-0.36-1.48-0.73-2.96-1.1-4.45c-0.25-1-0.49-2-0.74-2.99
	c-0.23-0.92-0.5-1.83-0.68-2.75c-0.15-0.77-0.38-1.51-0.55-2.27C9.49,9.97,9.28,9.17,9.08,8.36C9.03,8.16,8.9,8.03,8.71,8.03
	C7.55,8.01,6.38,8.02,5.22,8.02c-0.03,0-0.06,0.02-0.09,0.03C5.09,8.04,5.05,8.02,5.02,8.01C4.85,7.89,4.68,7.77,4.51,7.65
	C4.46,7.6,4.41,7.55,4.36,7.5c0-0.22,0-0.44,0-0.67c0.23-0.55,0.68-0.66,1.22-0.65c0.96,0.02,1.92,0,2.87,0.01
	c0.25,0,0.51,0.02,0.75,0.08C9.68,6.39,10.09,6.61,10.42,7c0.33,0.39,0.43,0.86,0.56,1.33c0.12,0.44,0.21,0.9,0.32,1.35
	c0.11,0,0.2,0,0.3,0c5.93,0,11.85,0,17.78,0c0.32,0,0.64-0.02,0.91,0.2c0.13,0.1,0.24,0.22,0.36,0.33
	C30.64,10.43,30.64,10.66,30.64,10.88z M28.45,11.8c0.02-0.02,0.05-0.03,0.07-0.05c-0.02-0.02-0.05-0.03-0.07-0.05
	c0.01-0.03,0.03-0.07,0.04-0.1c0.01-0.02,0.03-0.05,0.04-0.07c-0.05,0-0.1-0.01-0.15-0.01c-5.49,0-10.98,0-16.48,0
	c-0.05,0-0.09,0.01-0.15,0.01c0.61,2.48,1.21,4.94,1.82,7.39c4.38,0,8.74,0,13.11,0c0.04-0.14,0.09-0.27,0.12-0.4
	c0.41-1.63,0.81-3.26,1.22-4.89C28.16,13.02,28.3,12.41,28.45,11.8z M14.21,24.83c-0.61,0.01-1.03,0.59-1.02,1.1
	c0,0.54,0.51,1.04,1.04,1.04c0.47,0,1.13-0.52,1.12-0.9c-0.01-0.43-0.18-0.82-0.51-1.08C14.68,24.87,14.42,24.88,14.21,24.83z
	 M26.59,25.89c0.05-0.48-0.4-1.04-1.06-1.02c-0.66,0.01-1.03,0.49-1.03,1.05c0,0.56,0.37,1.02,1.01,1.05
	C26.05,26.99,26.67,26.45,26.59,25.89z"/>
</svg>
